<?xml version="1.0" encoding="utf-8"?>
<!-- Generator: Adobe Illustrator 23.0.1, SVG Export Plug-In . SVG Version: 6.00 Build 0)  -->
<svg version="1.1" id="Layer_1" xmlns="http://www.w3.org/2000/svg" xmlns:xlink="http://www.w3.org/1999/xlink" x="0px" y="0px"
	 viewBox="0 0 57 60" style="enable-background:new 0 0 57 60;" xml:space="preserve">
<title>Shape</title>
<desc>Created with Sketch.</desc>
<g id="Page-1">
	<g id="noun_Gender-Symbols_862114" transform="translate(-72.000000, 0.000000)">
		<path fill="#19d5e9" id="Shape" d="M128.3,2.7c0-0.1-0.1-0.2-0.1-0.3c0-0.1-0.1-0.2-0.1-0.3c0-0.1-0.1-0.2-0.2-0.3c0-0.1-0.1-0.1-0.1-0.2
			c-0.2-0.3-0.5-0.6-0.8-0.8c-0.1,0-0.1-0.1-0.2-0.1c-0.1-0.1-0.2-0.1-0.3-0.2c-0.1,0-0.2-0.1-0.3-0.1c-0.1,0-0.2-0.1-0.3-0.1
			c-0.2,0-0.4-0.1-0.6-0.1h-16.1c-1.7,0-3,1.3-3,3s1.3,3,3,3h8.9l-10.5,10.5c-3.6-2.3-7.9-3.7-12.5-3.7c-12.7,0-23.1,10.3-23.1,23.1
			s10.3,23.1,23.1,23.1c12.7,0,23.1-10.3,23.1-23.1c0-5.9-2.3-11.4-6-15.4l10.1-10.1v8.9c0,1.7,1.3,3,3,3c1.7,0,3-1.3,3-3V3.3
			C128.4,3.1,128.4,2.9,128.3,2.7z M95.2,53.2c-9.4,0-17.1-7.7-17.1-17.1s7.7-17.1,17.1-17.1c9.4,0,17.1,7.7,17.1,17.1
			S104.6,53.2,95.2,53.2z"/>
	</g>
</g>
</svg>
