<?xml version="1.0" encoding="utf-8"?>
<!-- Generator: Adobe Illustrator 22.0.0, SVG Export Plug-In . SVG Version: 6.00 Build 0)  -->
<svg version="1.1" id="Layer_1" xmlns="http://www.w3.org/2000/svg" xmlns:xlink="http://www.w3.org/1999/xlink" x="0px" y="0px"
	 viewBox="0 0 360 447" style="enable-background:new 0 0 360 447;" xml:space="preserve">
<style type="text/css">
	.st0{fill:none;}
	.st1{fill:#2E353D;}
	.st2{fill:#16A3BF;}
	.st3{fill:#17E2EA;}
	.st4{fill:#19D5E9;}
	.st5{fill:#01EEEE;}
	.st6{fill:#1BB6D1;}
	.st7{fill:#10C4DF;}
	.st8{fill:#22ECF4;}
	.st9{fill:#27E1E1;}
	.st10{fill:#00F7ED;}
	.st11{fill:#33C8DD;}
</style>
<title>present</title>
<desc>Created with Sketch.</desc>
<g>
	<path class="st0" d="M99.1,342.8c10.1,0,15.2-7.8,15.2-16.2c0-8.3-5.9-16.3-15.2-16.3c-10,0-15.2,8-15.2,16.3
		C83.9,335,89,342.8,99.1,342.8z"/>
	<circle class="st0" cx="95" cy="421.2" r="7.7"/>
	<path class="st0" d="M210.8,412.8c-3.6,0-6.6,1.8-7.6,5.3h14.6C217.4,414.5,214.7,412.8,210.8,412.8z"/>
	<path class="st0" d="M151.7,412.8c-3.6,0-6.6,1.8-7.6,5.3h14.6C158.3,414.5,155.6,412.8,151.7,412.8z"/>
	<path class="st0" d="M29.7,310.4c-8.8,0-15.9,6.1-15.9,16.1c0,9.6,7,16.2,15.9,16.2c8.7,0,16.2-6.3,16.2-16.2
		C45.9,316.9,38.4,310.4,29.7,310.4z"/>
	<rect x="30" y="376" class="st1" width="300" height="4"/>
	<path class="st2" d="M210.6,406.8c-8.8,0-14.4,5.9-14.4,14.2c0,8.7,5.6,14.5,14.9,14.5c4.1,0,8.8-1.4,11.7-4.4l-4.3-4.2
		c-1.5,1.6-4.8,2.5-7.3,2.5c-4.7,0-7.6-2.4-8.1-5.8h21.2C225.3,412.4,219.7,406.8,210.6,406.8z M203.2,418.1c1-3.5,4-5.3,7.6-5.3
		c3.9,0,6.6,1.8,7,5.3H203.2z"/>
	<path class="st2" d="M244.7,407.2c-3.4,0-6.2,1.4-8.9,4.1l-0.4-3.7h-6v27.2h6.7v-13.9c0-4.1,2.8-7.6,6.9-7.6c4.3,0,6.5,3.1,6.5,7.3
		v14.2h6.7v-14.3C256.2,412,251.1,407.2,244.7,407.2z"/>
	<path class="st2" d="M181.5,418.1c-3.5-0.2-5.1-1.2-5.1-3c0-1.7,1.8-2.7,5-2.7c2.6,0,4.8,0.6,6.7,2.4l3.7-4.4
		c-3.1-2.8-6.3-3.6-10.6-3.6c-5,0-11.4,2.2-11.4,8.5c0,6.2,6.1,8,11.2,8.4c3.9,0.2,5.4,1,5.4,2.9c0,2-2.4,3.3-4.9,3.2
		c-3-0.1-7.4-1.7-9.4-3.8l-3.3,4.8c4,4.1,8.3,4.8,12.5,4.8c7.8,0,11.7-4.1,11.7-8.9C193.1,419.6,186.6,418.4,181.5,418.1z"/>
	<path class="st2" d="M151.5,406.8c-8.8,0-14.4,5.9-14.4,14.2c0,8.7,5.6,14.5,14.9,14.5c4.1,0,8.8-1.4,11.7-4.4l-4.3-4.2
		c-1.5,1.6-4.8,2.5-7.3,2.5c-4.7,0-7.6-2.4-8.1-5.8h21.2C166.2,412.4,160.6,406.8,151.5,406.8z M144.1,418.1c1-3.5,4-5.3,7.6-5.3
		c3.9,0,6.6,1.8,7,5.3H144.1z"/>
	<path class="st2" d="M95.5,407c-3.1,0-6.7,1.3-8.8,4.3l-0.4-3.7H80v38.5h6.7v-14.5c1.9,3,6.2,3.9,9,3.9c8.7,0,13.7-6.3,13.7-14.2
		C109.4,413.3,103.9,407,95.5,407z M95,428.9c-4.6,0-7.7-3.5-7.7-7.7c0-4.2,2.9-7.7,7.7-7.7s7.7,3.5,7.7,7.7
		C102.7,425.5,99.6,428.9,95,428.9z"/>
	<path class="st2" d="M274.9,429.1c-2.1,0-3.5-1.3-3.5-3.9v-11.7h7.5v-5.8h-7.5V400l-6.7,0.7v7h-5.1v5.8h5.1v11.7
		c0,6.8,3.9,10.1,9.7,9.9c2-0.1,3.6-0.4,5.6-1.2l-1.9-5.7C277.1,428.7,275.9,429.1,274.9,429.1z"/>
	<path class="st2" d="M121.1,410.8l-0.5-3.1h-6.2v27.1h6.7v-14.3c0-5,3.2-6.9,6.8-6.9c2.2,0,3.5,0.6,4.8,1.8l3-5.8
		c-1.5-1.5-4.2-2.6-7-2.6C126,406.9,123.2,407.4,121.1,410.8z"/>
	<path class="st1" d="M336.3,298.2c-7.3,0-13.7,2.2-18.7,10.1c-3.2-7.6-9.9-10.3-16.5-10.3c-5.3,0-11.8,2-14.7,7.6l-1-6.7h-12.8
		v55.2h13.8v-29.5c0-7.3,4.4-13.9,11.9-13.9c7.6,0,11.4,6.6,11.4,13.9v29.5h13.8v-29.5c0-7.3,4.6-13.6,12.1-13.6
		c7.5,0,10.5,6.1,10.5,13.4v29.7H360v-29.7C360,307.9,352.2,298.2,336.3,298.2z"/>
	<path class="st1" d="M46.8,346.5l0.9,7.6h12.9V276H46.8v30.5c-3.3-5.7-12.5-8.8-18.4-8.8c-16.3,0-28.5,9.8-28.5,28.8
		c0,18.1,12.4,28.8,28.8,28.8C35.6,355.4,42.5,353.1,46.8,346.5z M29.7,342.7c-8.8,0-15.9-6.6-15.9-16.2c0-9.9,7-16.1,15.9-16.1
		c8.7,0,16.2,6.5,16.2,16.1C45.9,336.5,38.4,342.7,29.7,342.7z"/>
	<path class="st1" d="M70.1,326.6c0,15.9,10.9,28.7,29,28.7c18.1,0,29.1-12.9,29.1-28.7c0-15.8-11.4-28.7-29.2-28.7
		S70.1,310.9,70.1,326.6z M99.1,310.3c9.3,0,15.2,8,15.2,16.3c0,8.4-5.1,16.2-15.2,16.2c-10.1,0-15.2-7.8-15.2-16.2
		C83.9,318.4,89.1,310.3,99.1,310.3z"/>
	<path class="st1" d="M232.6,356c15.3,0,27.9-11.7,27.9-26.4v-30.5h-13.2v30.5c0,7.3-6.5,13.3-14.6,13.3s-14.6-6-14.6-13.3v-30.5
		h-13.2v30.5C204.7,344.3,217.3,356,232.6,356z"/>
	<path class="st1" d="M192.9,355.1v-30.5c0-14.6-12.6-26.4-27.9-26.4s-27.9,11.7-27.9,26.4v30.5h13.2v-30.5
		c0-7.3,6.5-13.3,14.6-13.3s14.6,6,14.6,13.3v30.5H192.9z"/>
	<path class="st3" d="M295,111.8c-0.3-0.5-0.7-0.8-1.2-1l-91.5-24.1c-1.1-0.3-2.2,0.4-2.4,1.4c-0.1,0.5-0.1,1,0.2,1.5l31,58.1
		c0.5,1,1.7,1.3,2.7,0.8c0,0,0,0,0,0l60.5-34C295.2,114,295.5,112.7,295,111.8z"/>
	<path class="st4" d="M177.3,180.1l47.6-26.7c0.9-0.5,1.3-1.7,0.8-2.7l-35.5-66.5c-0.3-0.5-0.7-0.9-1.3-1l-17.5-4.6
		c-0.2,0-0.3-0.1-0.5-0.1h-10.4c-0.4,0-0.8,0.1-1.1,0.3l-73.2,49.4c-0.9,0.6-1.2,1.9-0.5,2.8c0.2,0.3,0.4,0.5,0.7,0.6l88.9,48.5
		C176,180.5,176.7,180.5,177.3,180.1z"/>
	<path class="st5" d="M170.6,72c0.1,0.1,0.2,0.2,0.3,0.2l0.9,0.2c0.2,0,0.3,0.1,0.5,0.1h8.4c1.1,0,2-0.9,2-2c0-0.3-0.1-0.7-0.2-0.9
		l-1.4-2.6c-0.5-1-1.7-1.3-2.7-0.8c-0.1,0-0.1,0.1-0.2,0.1l-7.4,5C170.5,71.4,170.4,71.8,170.6,72z"/>
	<path class="st6" d="M265.4,226.9c0.3-0.6,0.3-1.3,0-1.9l-35-65.5c-0.5-1-1.7-1.3-2.7-0.8c0,0,0,0,0,0l-42,23.6
		c-1,0.5-1.3,1.8-0.8,2.7c0.2,0.3,0.5,0.6,0.8,0.8l76.9,42C263.7,228.3,264.9,227.9,265.4,226.9z"/>
	<path class="st7" d="M267.4,213.7c1.1,0,2-0.9,2-2v-73c0-0.3-0.1-0.7-0.3-1c-0.5-1-1.8-1.3-2.7-0.8l-30,16.9
		c-0.9,0.5-1.3,1.7-0.8,2.7l30,56.2C266,213.3,266.7,213.7,267.4,213.7z"/>
	<path class="st8" d="M208.4,80.1c-0.3,1.1,0.4,2.2,1.4,2.4l93,24.6c0.2,0,0.3,0.1,0.5,0.1c1.1,0,2-0.9,2-2V80.6c0-1.1-0.9-2-2-2
		h-93C209.4,78.6,208.6,79.2,208.4,80.1z"/>
	<path class="st9" d="M190.2,71.2c0.4,0.8,1.3,1.2,2.1,1l53.2-10c0.8-0.2,1.5-0.8,1.6-1.7l2.6-19c0.1-0.8-0.3-1.6-1-2l-15.7-8.6
		c-0.7-0.4-1.5-0.3-2.1,0.1l-44.2,30c-0.9,0.6-1.1,1.7-0.6,2.6L190.2,71.2z"/>
	<path class="st10" d="M103.9,53.3c0.1,0.8,0.7,1.4,1.5,1.6l55.8,14.7c0.6,0.1,1.2,0,1.6-0.3l12.9-8.7c0.8-0.6,1.1-1.7,0.6-2.6
		L146.1,1.4c-0.4-0.8-1.3-1.2-2.2-1l-35,7.4c-0.6,0.1-1.2,0.6-1.4,1.2l-7.7,18.8c-0.1,0.3-0.2,0.7-0.1,1.1L103.9,53.3z"/>
	<path class="st3" d="M56.1,115.1l20.5,11.2c0.7,0.4,1.5,0.3,2.1-0.1l65.1-43.9c0.9-0.6,1.2-1.9,0.5-2.8c-0.4-0.6-1-0.9-1.7-0.9
		H57.1c-1.1,0-2,0.9-2,2v32.7C55.1,114.1,55.5,114.7,56.1,115.1z"/>
	<path class="st11" d="M90.5,140.7c-0.3-0.2-0.6-0.2-1-0.2c-1.1,0-2,0.9-2,2v84.6c0,0.3,0.1,0.7,0.3,1c0.5,1,1.8,1.3,2.7,0.8
		l76.5-43c0.3-0.2,0.6-0.5,0.8-0.8c0.5-1,0.2-2.2-0.8-2.7L90.5,140.7z"/>
	<path class="st2" d="M257.9,233.2c0-0.7-0.4-1.4-1-1.8l-79.5-43.3c-0.6-0.3-1.3-0.3-1.9,0l-77.3,43.3c-1,0.5-1.3,1.8-0.8,2.7
		c0.4,0.6,1,1,1.7,1h156.7C257,235.2,257.9,234.3,257.9,233.2z"/>
</g>
</svg>
