<?xml version="1.0" encoding="utf-8"?>
<!-- Generator: Adobe Illustrator 23.0.1, SVG Export Plug-In . SVG Version: 6.00 Build 0)  -->
<svg version="1.1" id="Layer_1" xmlns="http://www.w3.org/2000/svg" xmlns:xlink="http://www.w3.org/1999/xlink" x="0px" y="0px"
	 viewBox="0 0 47 73" style="enable-background:new 0 0 47 73;" xml:space="preserve">
<title>Shape</title>
<desc>Created with Sketch.</desc>
<g id="Page-1">
	<g id="noun_Gender-Symbols_862114" transform="translate(-16.000000, -13.000000)">
		<path fill="#f27fd5" id="Shape" d="M39.2,13.1c-12.7,0-23.1,10.3-23.1,23.1c0,11.7,8.8,21.4,20.1,22.9v10.8h-7.2c-1.7,0-3,1.3-3,3
			c0,1.7,1.3,3,3,3h7.2v6.9c0,1.7,1.3,3,3,3c1.7,0,3-1.3,3-3v-6.9h7.6c1.7,0,3-1.3,3-3c0-1.7-1.3-3-3-3h-7.6V59
			c11.3-1.5,20.1-11.2,20.1-22.9C62.2,23.4,51.9,13.1,39.2,13.1z M39.2,53.2c-9.4,0-17.1-7.7-17.1-17.1s7.7-17.1,17.1-17.1
			c9.4,0,17.1,7.7,17.1,17.1S48.6,53.2,39.2,53.2z"/>
	</g>
</g>
</svg>
